<svg width="1600" height="263" fill="none" xmlns="http://www.w3.org/2000/svg"><g clip-path="url(#a)"><path d="M1499.81 261.347H1600l-165.27-232.52C1423.29 12.684 1407.12 0 1382.67 0c-24.46 0-41.42 13.834-52.86 28.827l-168.82 232.525h96.24l61.68-84.979 59.57 84.979h100.19l-108.55-155.548 10.96-15.096 118.73 170.644v-.005ZM422.537 261.875h64.766V157.093h31.242V97.276h-31.242V61.62h41.907V1.807H422.537v260.068Zm111.554 0h64.766V1.807h-64.766v260.068ZM694.962 60.508c0 18.577.382 36.78.76 56.843-2.286-19.693-5.334-38.64-7.999-56.843l-8-58.7h-76.195v260.067h55.623V189.8c0-18.946-.383-36.781-.761-57.216 2.287 20.062 4.952 38.265 8.382 57.216l13.334 72.075h70.479V1.807h-55.623v58.701Zm274.455-58.7h-64.765v260.067h101.338v-59.817h-36.573V1.808Zm116.913 87.677h60.58v-26.38c0-49.043-11.81-62.427-57.53-62.427h-24c-45.72 0-57.53 13.388-57.53 62.427v6.314c0 37.604-1.38 42.382 41.03 76.467 37.04 29.389 35.17 23.774 35.17 42.725l-.04 5.271c0 7.43-.03 9.885-5.33 10.031h-4.16c-6.74-.116-6.09-2.601-6.09-10.031v-27.123h-60.58v33.81c0 49.044 11.81 62.431 57.53 62.431h24c45.72 0 57.53-13.387 57.53-62.431v-11.516c0-39.364-.23-43.494-46.02-79.682-34.17-26.98-30.9-21.71-30.9-40.321v-.743c-.06-7.812 1.01-8.494 6.1-8.546h4.14c5.92.073 6.14 1.833 6.1 10.031v19.693ZM0 61.912h27.811v200.625h64.766V61.912h27.812V2.468H0v59.444Zm203.559 35.965h-13.716V2.468h-64.766v260.069h64.766V157.694h13.716v104.843h64.766V2.468h-64.766v95.409Zm69.793 164.66h109.342v-59.818h-44.576v-45.03h33.907V97.877h-33.907V62.285h44.576V2.468H273.352v260.069ZM783.009 1.79l-31.263 260.253h62.034l2.287-30.488h24.021l2.287 30.488h61.489L872.605 1.79H783.009Zm37.254 175.858c3.43-48.704 5.717-90.717 7.625-130.87 1.526 40.153 4.196 82.166 8.009 130.87h-15.634Z" fill="#fff"/><path d="M1156.73 8.206v-.092c.92-.277 1.57-.928 1.57-1.76 0-.738-.32-1.34-.74-1.666-.55-.325-1.2-.554-2.64-.554-1.25 0-2.22.092-2.91.233v7.59h1.76V8.901h.83c.97 0 1.44.37 1.58 1.205.23.88.37 1.574.6 1.851h1.9c-.19-.277-.33-.738-.55-1.9-.24-1.02-.65-1.574-1.39-1.85h-.01Zm-2.09-.554h-.83V5.475c.18-.048.51-.092.97-.092 1.11 0 1.62.462 1.62 1.156 0 .788-.79 1.113-1.76 1.113Zm.33-7.27c-4.36 0-7.83 3.382-7.83 7.596 0 4.213 3.47 7.687 7.83 7.687 4.35 0 7.78-3.382 7.78-7.687 0-4.306-3.38-7.595-7.78-7.595Zm.05 13.66c-3.43 0-5.93-2.687-5.93-6.064 0-3.378 2.5-6.065 5.88-6.065s5.83 2.731 5.83 6.113c0 3.382-2.45 6.02-5.78 6.02v-.004Z" fill="#E5E6E8"/></g><defs><clipPath id="a"><path fill="#fff" d="M0 0h1600v263H0z"/></clipPath></defs></svg>